<svg width="20" height="20" viewBox="0 0 20 20" fill="none" xmlns="http://www.w3.org/2000/svg">
<g clip-path="url(#clip0_437_304)">
<path d="M2.92984 17.0698C1.97473 16.1474 1.21291 15.0439 0.688821 13.8239C0.164731 12.6038 -0.111131 11.2916 -0.122669 9.96385C-0.134207 8.63605 0.11881 7.31926 0.621618 6.09029C1.12443 4.86133 1.86696 3.74481 2.80589 2.80589C3.74481 1.86696 4.86133 1.12443 6.09029 0.621618C7.31926 0.11881 8.63605 -0.134207 9.96385 -0.122669C11.2916 -0.111131 12.6038 0.164731 13.8239 0.688821C15.0439 1.21291 16.1474 1.97473 17.0698 2.92984C18.8914 4.81586 19.8994 7.34188 19.8766 9.96385C19.8538 12.5858 18.8021 15.0939 16.948 16.948C15.0939 18.8021 12.5858 19.8538 9.96385 19.8766C7.34188 19.8994 4.81586 18.8914 2.92984 17.0698ZM15.6598 15.6598C17.161 14.1587 18.0043 12.1227 18.0043 9.99984C18.0043 7.87692 17.161 5.84096 15.6598 4.33984C14.1587 2.83871 12.1227 1.99539 9.99984 1.99539C7.87692 1.99539 5.84096 2.83871 4.33984 4.33984C2.83871 5.84096 1.99539 7.87692 1.99539 9.99984C1.99539 12.1227 2.83871 14.1587 4.33984 15.6598C5.84096 17.161 7.87692 18.0043 9.99984 18.0043C12.1227 18.0043 14.1587 17.161 15.6598 15.6598ZM6.99984 5.99984L14.9998 9.99984L6.99984 13.9998V5.99984Z" fill="#004894"/>
</g>
<defs>
<clipPath id="clip0_437_304">
<rect width="20" height="20" fill="white"/>
</clipPath>
</defs>
</svg>
